<?xml version="1.0" standalone="no"?>
<!DOCTYPE svg PUBLIC "-//W3C//DTD SVG 20010904//EN"
 "http://www.w3.org/TR/2001/REC-SVG-20010904/DTD/svg10.dtd">
<svg version="1.0" xmlns="http://www.w3.org/2000/svg"
 width="410.000000pt" height="266.000000pt" viewBox="0 0 410.000000 266.000000"
 preserveAspectRatio="xMidYMid meet">

<g transform="translate(0.000000,266.000000) scale(0.100000,-0.100000)"
fill="#000000" stroke="none">
<path d="M2600 2011 l-45 -7 43 -13 c23 -8 42 -17 42 -21 0 -5 -159 -288 -331
-587 -13 -24 -27 -43 -31 -43 -10 0 -5 -7 -204 335 -95 163 -168 300 -167 313
1 22 -1 22 -118 22 l-118 0 24 -35 c43 -64 67 -125 84 -210 15 -79 31 -112 31
-65 0 24 29 100 39 100 3 0 85 -135 181 -300 106 -182 181 -300 190 -300 9 0
55 71 115 177 55 97 127 213 160 258 181 247 212 282 298 340 l52 35 -56 0
c-31 0 -76 2 -100 4 -24 2 -64 1 -89 -3z"/>
<path d="M1110 2005 c0 -3 10 -20 23 -36 l22 -31 0 -483 0 -483 -22 -31 c-13
-16 -23 -33 -23 -36 0 -3 50 -5 110 -5 69 0 110 4 110 10 0 6 -6 13 -14 16
-34 13 -41 64 -41 309 l0 240 135 5 c161 6 153 19 -15 22 l-120 3 0 205 c1
209 8 261 41 274 8 3 14 10 14 16 0 6 -41 10 -110 10 -60 0 -110 -2 -110 -5z"/>
<path d="M2717 1850 c-86 -94 -96 -155 -97 -586 0 -270 -6 -316 -41 -335 -42
-22 -16 -29 106 -29 122 0 148 7 105 30 -38 20 -41 66 -38 523 2 240 2 437 2
437 -1 0 -18 -18 -37 -40z"/>
<path d="M1781 1588 c-1 -46 -20 -78 -53 -93 -18 -8 -26 -14 -17 -15 31 0 59
-34 68 -80 5 -25 9 -36 10 -24 2 46 23 82 53 95 l30 12 -28 15 c-38 19 -35 15
-50 69 -9 35 -13 41 -13 21z"/>
<path d="M1773 1140 c-16 -78 -51 -166 -79 -199 -13 -16 -24 -32 -24 -35 0 -3
56 -6 125 -6 69 0 125 2 125 4 0 3 -11 16 -24 30 -36 40 -85 138 -99 202 l-13
58 -11 -54z"/>
<path d="M1140 630 c0 -60 4 -100 10 -100 6 0 10 40 10 100 0 60 -4 100 -10
100 -6 0 -10 -40 -10 -100z"/>
<path d="M1220 630 c0 -55 3 -100 8 -100 4 0 7 45 7 100 0 55 -3 100 -7 100
-5 0 -8 -45 -8 -100z"/>
<path d="M1370 630 c0 -60 4 -100 10 -100 6 0 10 40 10 100 0 60 -4 100 -10
100 -6 0 -10 -40 -10 -100z"/>
<path d="M1435 720 c3 -5 8 -10 11 -10 2 0 4 5 4 10 0 6 -5 10 -11 10 -5 0 -7
-4 -4 -10z"/>
<path d="M1585 630 c0 -55 3 -100 8 -100 4 0 7 45 7 100 0 55 -3 100 -7 100
-5 0 -8 -45 -8 -100z"/>
<path d="M1812 628 l2 -103 5 85 6 85 19 -70 c24 -89 31 -103 39 -81 4 10 3
15 -1 12 -5 -3 -19 35 -32 85 -13 49 -28 89 -32 89 -4 0 -7 -46 -6 -102z"/>
<path d="M1935 630 c0 -55 3 -100 8 -100 4 0 7 45 7 100 0 55 -3 100 -7 100
-5 0 -8 -45 -8 -100z"/>
<path d="M2195 721 c37 -16 58 -49 59 -95 1 -30 4 -40 9 -29 23 39 -29 134
-72 132 -12 0 -11 -2 4 -8z"/>
<path d="M2505 721 c37 -16 58 -49 59 -95 1 -30 4 -40 9 -29 23 39 -29 134
-72 132 -12 0 -11 -2 4 -8z"/>
<path d="M2702 628 l2 -103 5 89 6 90 34 -82 c18 -46 36 -80 39 -78 6 7 -71
185 -80 186 -5 0 -7 -46 -6 -102z"/>
<path d="M1645 680 c0 -21 3 -36 8 -33 4 2 7 17 7 33 0 16 -3 31 -7 33 -5 3
-8 -12 -8 -33z"/>
<path d="M2071 628 c-1 -40 3 -50 30 -72 17 -14 38 -26 47 -26 9 1 3 7 -14 14
-39 17 -47 29 -55 86 l-6 45 -2 -47z"/>
<path d="M2381 628 c-1 -40 3 -50 30 -72 17 -14 38 -26 47 -26 9 1 3 7 -14 14
-39 17 -47 29 -55 86 l-6 45 -2 -47z"/>
<path d="M1632 599 c6 -16 12 -28 14 -26 5 5 -13 57 -20 57 -3 0 0 -14 6 -31z"/>
</g>
</svg>
